<svg xmlns="http://www.w3.org/2000/svg" width="252" height="256" viewBox="0 0 252 256"><path d="M96.4 147.8a17.1 17.1 0 0 0-4.6.5.7.7 0 0 0 .4.6l1.2.6 1.6.6 1.7.5 1.5.4h2.1a7.6 7.6 0 0 0 1.6-.3l1.4-.5a2.2 2.2 0 0 0 1-.9 17.1 17.1 0 0 0-3.8-1.3 19 19 0 0 0-4.1-.2z"/><path d="M138 47.6a76.7 76.7 0 1 0 76.7 76.6A76.7 76.7 0 0 0 138 47.6zm50 42.3a3.4 3.4 0 0 1-.1.9 6.9 6.9 0 0 1-.2 1.3 5 5 0 0 1-.2 1.2 5.4 5.4 0 0 1-.1.8l-.6 1.1-.3 1.2a5.6 5.6 0 0 0-.4 1.2c-.1.4-.3.8-.4 1.2l-1 1.8a11.4 11.4 0 0 0-1 1.9l-12 16.7c-.1.2-.1.3-.2.3s-.1.1-.1.2l-.2.2q-.1 0-.3.3l-1 1.3-1.2 1.8a12.7 12.7 0 0 0-1.3 1.9 10.6 10.6 0 0 0-1.2 2 7.6 7.6 0 0 0-.9 1.8 3.9 3.9 0 0 0-.3 1.4c0 .2-.1.3-.1.4s.1.3.1.4c-.1.1-.2.1-.2.3a.2.2 0 0 0 .2.2v6.3a3.5 3.5 0 0 0-.1.6l-.3.7a1.5 1.5 0 0 0-.3.7 2.1 2.1 0 0 0-.3.7v1a.1.1 0 0 1 0 .2 1.3 1.3 0 0 1-.3.5l-.4.5-.3.2v.3l.5.2.5.3v1.7a15.5 15.5 0 0 1-.4 2.1c-.1.7-.3 1.4-.4 2.1a15.5 15.5 0 0 0-.4 2.1 15 15 0 0 0-.2 2.2c0 1.2 0 2.5.1 3.8s.4 2.5.7 3.7a14 14 0 0 0 1.3 3.4 13.2 13.2 0 0 0 2 3.2c-.1.2-.4.3-.7.5l-1 .4-1.1.3h-1.1l-.6-.2h-.8l-.6-.2h-.8l-.4-.3a.8.8 0 0 1-.2-.5 18.5 18.5 0 0 0 .1-2.4c-.1-.9-.1-1.7-.2-2.6l-.3-2.6a9.9 9.9 0 0 1-.3-2.4c-.1-.1-.1-.2-.2-.4s-.1-.3-.1-.4a17.7 17.7 0 0 1 .1-2.2 19.3 19.3 0 0 0-.1-2.4 20 20 0 0 0-.4-2.4 9.3 9.3 0 0 0-.8-2 1.8 1.8 0 0 0-.9 1c-.2.5-.3 1.1-.5 1.7s-.1 1.1-.2 1.7-.6 1.1-.6 1.4v4.6c0 1.7-.1 3.4-.1 5s.2 3.3.4 4.9l.2.2.5.4.5.4c.1.2.2.3.2.4l-.5.5-1.1.5-1.2.5-.8.3h-.1l-2.9-1.6a.4.4 0 0 1-.1-.3v-.4a10.8 10.8 0 0 1 0-1.8 9.7 9.7 0 0 0 .1-1.8 17.9 17.9 0 0 0-.2-2.3 17 17 0 0 0-.4-2.2l-.3-2.3a16.4 16.4 0 0 1-.2-2.3c0-.8.1-1.4.1-2s.1-1.2.2-1.7l.3-1.7a10.6 10.6 0 0 0 .4-1.9.4.4 0 0 0 0-.5c0-.2-.1-.3-.1-.4h-1.1l-1.1.3-1.2.4-1.1.3h-11.6a2.7 2.7 0 0 0-1.5.5 16 16 0 0 1 0 3.1c0 1.1 0 2.1-.1 3.1s-.1 2.1-.1 3.1-.1 2.1-.1 3.1v3.1c0 .3.4.7.7 1l.8 1 .7 1.1a1.7 1.7 0 0 1 .4 1.1h-.1a4.8 4.8 0 0 1-2.4.3c0 .2 0 .4-.1.4h-3a2 2 0 0 1-1.1-.6c-.4-.2-.5-.6-.5-1.1a2.5 2.5 0 0 1 .1-.8 1.9 1.9 0 0 1 .2-.7 1.9 1.9 0 0 1 .2-.8v-.9a17.7 17.7 0 0 0-.1-2.3c-.1-.7-.3-1.4-.4-2.1s-.4-1.6-.5-2.3a15 15 0 0 1-.4-2.4h-.3c-.1 0-.2.4-.3.5l-.3.4v.3l-1 1.4-.9 1.4-.6 1.5a4.1 4.1 0 0 0-.3 1.6 4.4 4.4 0 0 0 .2 1l.5.9.4.7.2.3c0 .2-.1.3-.2.5l-.7.2-.8.2h-2.6c-.2-.1-.5-.1-.6-.3a1 1 0 0 1-.4-.5 1.9 1.9 0 0 1-.4-1l-.3-.9a4.4 4.4 0 0 1-.2-1 1.6 1.6 0 0 1 .3-.9l.6-1 .6-.9a9 9 0 0 0 .5-.9l1.5-3.6 1.5-3.5c0-.2.1-.3.2-.5l.4-.4c.1-.2.2-.3.2-.5a.7.7 0 0 0 .1-.5c0-.2 0-.3-.2-.3h-.6a.1.1 0 0 0-.1.1l-5.5 1.4a.8.8 0 0 1-.7.3l-1.1.3-1 .3a1 1 0 0 0-.4.7.8.8 0 0 0 .2.5l.4.4.5.3.4.4-.2.3-.8-.5-.8-.5-1-.4h-.9a8.3 8.3 0 0 0-2.2.3l-2.4.6-2.5.7a10.9 10.9 0 0 1-2.6.3 8.7 8.7 0 0 1-2-.2 21.1 21.1 0 0 1-3-.7l-3.3-1a20.9 20.9 0 0 1-3-1.4 9.6 9.6 0 0 1-2.2-1.6 2.6 2.6 0 0 1-.9-1.8 3 3 0 0 1 .7-2 4.8 4.8 0 0 1 1.7-1 7.4 7.4 0 0 1 2.1 0 12.3 12.3 0 0 1 2 .2h2.4c.1 0 .3-.3.8-.2H99l1.5.2h1.2l1.2.4 1.1.5 1.1.4a2.2 2.2 0 0 0 1.2.2 6 6 0 0 0 2.4-.6l2.5-1.5 2.3-1.9 2-1.7 1.1-.7 1.1-.7 1.1-.7.9-1.1a11.7 11.7 0 0 0 1.5-2.7c.5-.9 1.1-1.8 1.7-2.7a2.7 2.7 0 0 1 .8-.7l.9-.6 1-.6 1-.5 2.1-1.6 2.1-1.8 2-1.8 2.1-1.7a10.5 10.5 0 0 1 2.3-1.3l2.4-1.2 1.5-.7 1.5-.8 1.5-.7 1.6-.5 13.5-1.9a8.6 8.6 0 0 0 2.1-.7l2.1-1.3c.6-.6 1.3-1.1 1.9-1.8l1.7-1.9 1.6-2 1.5-1.7 4.6-5.4h.2l.3-.4.3-.3c.1-.1.2-.1.2-.2l1.2-1.9h.2l.2-.2h.4c0-.1.1-.1.2-.3l.2-.2.8-1 .8-1.2.8-1.2.6-1a5 5 0 0 0 .5-1.3 5.6 5.6 0 0 0 .4-1.2l.5-1.4c.2-.4.6-.9.6-1.3v-4.1a2.7 2.7 0 0 0-.7-1.8 5.7 5.7 0 0 0-1.5-1.6 10.6 10.6 0 0 0-2.1-1.1 4.6 4.6 0 0 0-1.9-.4 13.4 13.4 0 0 0-3.5.4 7.7 7.7 0 0 0-3.1 1.6l-.9.8-.9 1.2-1.1 1.2-1.2 1.1-1.1.8a2.3 2.3 0 0 1-1.1.3 1 1 0 0 1-1-1v-.2a.4.4 0 0 1 .1-.3 9329101592432.2 9329101592432.2 0 0 1 .2-1v-.2a2.5 2.5 0 0 0-.2-1l-.3-.9a2.5 2.5 0 0 1-.4-.7 1.7 1.7 0 0 1-.1-.7l.5-.2.3-.4a.8.8 0 0 1 .2-.4 1 1 0 0 1 .5-.4h1.7a.6.6 0 0 0 .6-.3l.4-.4h.2c.1 0 .1.1.2.2v.2a.2.2 0 0 1 .2-.2l.4-.2.7-.4.8-.5.8-.5.7-.4.3-.2 1.3-.8a3.5 3.5 0 0 1 1.1-.3l1.1-.2h3.9l.9.3.9.2 1 .2a1.6 1.6 0 0 1 .9.3 7.1 7.1 0 0 1 2.7 1.8 9.6 9.6 0 0 1 2 2.5 11.2 11.2 0 0 1 1 3.1 11.6 11.6 0 0 1 .3 3.3v1.4z"/></svg>