<svg xmlns="http://www.w3.org/2000/svg"><symbol id="micropachycephalosaurus" viewBox="0 0 252 256"><path d="M131.6 147.7a.3.3 0 0 0-.3.3.3.3 0 0 0-.3.3c0 .3.1.4.3.4s.2-.1.2-.4h.1a.3.3 0 1 0 0-.6zm.9-.5a1 1 0 0 0-.6.5h.2l.7-.2.5-.5h-.2zm1.8-1.6c-.2 0-.3.2-.3.4a.3.3 0 0 0-.3.3h-.1c-.2 0-.3.1-.3.4a.3.3 0 1 0 .6 0h.1c.2 0 .2-.1.2-.4h.1a.3.3 0 0 0 .3-.3c0-.2-.1-.4-.3-.4zm14-3.5l-.8.8c.2.4.3.6.5.7h.7a1.1 1.1 0 0 0 .8-.3 2.3 2.3 0 0 0 .7-.7l.5-.9c.1-.3.2-.7.3-.7h-2.1c-.1.1-.3.7-.6 1.1z"/><path d="M128.8 57.1a76.7 76.7 0 1 0 76.7 76.6 76.6 76.6 0 0 0-76.7-76.6zm57.5 45.4l-.9.3h-2.2a19.4 19.4 0 0 0-3.2.7 9 9 0 0 0-2.2 1 4.7 4.7 0 0 0-1.5 1.3 14.2 14.2 0 0 0-1.1 1.8 18.5 18.5 0 0 0-.9 2.3c-.2.9-.6 1.9-1 3.1a11.8 11.8 0 0 1-.7 2c-.2.7-.5 1.3-.7 1.9l-.9 1.9a19.8 19.8 0 0 1-1.1 2 14.3 14.3 0 0 1-1.6 2.4 18.1 18.1 0 0 1-1.8 2.3l-1.8 2.1a21.1 21.1 0 0 0-1.9 2.3 6 6 0 0 0-.8 1.6l-.6 1.6-.8 1.3a5.6 5.6 0 0 1-1.5 1l-.8.3-1.3.4-1.2.4-.8.2a1.7 1.7 0 0 1 .1 1.2 1 1 0 0 1-.5.6l-.8.4a1.2 1.2 0 0 0-.5.5l-1.3 4.1a2.2 2.2 0 0 1-.7.9 2.8 2.8 0 0 1-1.1.5h-3.5a.6.6 0 0 1-.2-.5v-.2c.1-.1.1-.2.2-.2v-.4l-2.1 1-2 1.2-2 1.3-2.1 1.2-.5.3-.7.4-.6.4a.8.8 0 0 0-.2.7v.2l1.1 1 1.1 1 1.3 1 1.2.7 1.1.4 1.2.4 1.1.4 1 .5.9.9.6.9.7.8a2.4 2.4 0 0 0 .9.8 2.3 2.3 0 0 0 1 .4l1.3.4a2.1 2.1 0 0 1 1 .6 1.2 1.2 0 0 1 .5 1v.2h-.1l-3.4.7-.6.2-.7.2h-.4l-.7-.4-1-.6-1-.6-.6-.5c0-.1-.1-.2-.2-.3l-.2-.3c0-.2-.1-.2-.1-.3l-1.4-2.7-.7-.3-1.1-.5-1.3-.5-1.2-.6-1.1-.5-.7-.4-1.7-.9-1.6-1.3-1.2-1.6a6 6 0 0 1-.6-1.9h-.3l-.4.2-.5.4-1 .7-1.3.9-1.3.8-1.1.7c-.3.1-.5.2-.5.3l-3.6 2.1a12.1 12.1 0 0 0-2.8 2.1 11.2 11.2 0 0 0-2.2 2.6c-.5 1.1-.4 2.4-1.4 4v1a6.7 6.7 0 0 0 .7 2.7 4.7 4.7 0 0 0 1.3 1.5 4.2 4.2 0 0 0 1.6.9 6.7 6.7 0 0 1 1.5.6c.5.2.9.2 1.2.5a4.5 4.5 0 0 1 .5 1.3h-8.1a.5.5 0 0 0-.1-.3c0-.1-.1-.1-.2-.1h-.3l-.4-.2a1.6 1.6 0 0 1-.7-.9 2.8 2.8 0 0 1-.3-1.3c0-.5.1-1 .1-1.4a6.9 6.9 0 0 0 .2-1.3v-.8a2.6 2.6 0 0 1 .2-1.1l.3-1.6c.2-.6.3-1.3.5-1.9s.3-1.3.5-1.9a6.2 6.2 0 0 1 .4-1.6 8.9 8.9 0 0 0 .2-1.1 8.3 8.3 0 0 1 .4-1.2l.6-1.2a8.7 8.7 0 0 0 2.7-1.5 12.6 12.6 0 0 0 2-2l1.7-2.1a9.1 9.1 0 0 1 2.1-1.8l.9-.5 1.2-.4 1.4-.6 1.3-.7a3.9 3.9 0 0 0 1-.8 1.6 1.6 0 0 0 .3-.9v-.7a1 1 0 0 0-.4-.8h-.4l-.7-.4-.7-.3-.5-.2-1.2-.7-1.6-1.2-1.6-.9a1.6 1.6 0 0 0-1-.3H95l-7.8-.2a59.8 59.8 0 0 1-7.4-.8 45.8 45.8 0 0 1-7.3-1.8 38.6 38.6 0 0 1-7.1-3l-.8-.5a2.1 2.1 0 0 1-1-.6l-.8-.7a1.9 1.9 0 0 1-.3-1l1.3.2 1.4.6 1.3.6 1 .4 2.8 1 3 .8a17 17 0 0 0 3.1.6l2.9.3h16l1.6-.2 2-.3 2.2-.4 2.1-.4 1.6-.3 4.1-.8 4.5-1 4.4-1.3a23 23 0 0 0 3.9-1.7l2.4-1 2.2-1 2.4-.8 2.6-.6h3.4l1.1-.2 2-.4 2.5-.6 2.4-.5c.8-.2 1.4-.6 2-.7a5.3 5.3 0 0 0 1.1-.4h4a38.8 38.8 0 0 1 4.8.4c1.5.1 3.1.3 4.7.3a5.2 5.2 0 0 0 3-.8 10.8 10.8 0 0 0 2.8-2.1 18.2 18.2 0 0 0 2.3-3 37.9 37.9 0 0 0 2-3.4 31.1 31.1 0 0 0 1.5-3.3c.5-1.1.8-2.1 1.1-2.9s.5-1.5.7-2.1l.6-1.9a7.7 7.7 0 0 1 .7-1.6 3.2 3.2 0 0 1 1.1-1.2 4.9 4.9 0 0 1 1.6-1 6.7 6.7 0 0 1 2.2-.4h1.9c.4 1 1 .5 1.8.7l2.1 1a7.8 7.8 0 0 1 1.8 1.1 1.7 1.7 0 0 1 .8 1.3 1.1 1.1 0 0 1-.3.8 1.8 1.8 0 0 1-.7.1z"/></symbol><symbol id="velociraptor" viewBox="0 0 252 256"><path d="M127.2 52.1a76.7 76.7 0 1 0 76.6 76.6 76.6 76.6 0 0 0-76.6-76.6zm66.3 69.9H189a50.7 50.7 0 0 1-5.5-.3l-5.5-.6-5.5-.5a49.3 49.3 0 0 0-5.5-.3 81.8 81.8 0 0 0-9.8.6 44.6 44.6 0 0 0-9.6 2.2l-18.4 6.7c-.3.1-.5.4-.7.9a9.8 9.8 0 0 0-.5 1.6 11.6 11.6 0 0 1-.4 1.8 5.3 5.3 0 0 1-.3 1.1 1.5 1.5 0 0 0 .8.8 5.2 5.2 0 0 0 1.5.7l1.7.8 1.7.8a4.6 4.6 0 0 1 1.2 1.2 1.9 1.9 0 0 1 .5 1.4 1.1 1.1 0 0 1-.3.8l-.7.5-1 .4-.9.5-.8.6a1.7 1.7 0 0 0-.3 1 2.5 2.5 0 0 0 .5 1.5 3.8 3.8 0 0 0 1.2.9l1.4.8a4.5 4.5 0 0 1 1.3 1.1 7.2 7.2 0 0 1 1.2 2.1 14.3 14.3 0 0 1 .8 2.2 15.7 15.7 0 0 1 .4 2.3 19.4 19.4 0 0 1 .2 2.4l.8.8v4.3h1.7l.4.2v.5a1.8 1.8 0 0 1-.1.6 1.9 1.9 0 0 1-.2.7 1.3 1.3 0 0 1-.4.6c-.1.2-.3.2-.5.2h-3.1c-.1 0-.3-.4-.6-.5l-.9-.6-1-.4-.6-.5h-3.8a3.4 3.4 0 0 1 .4-1.8 3.2 3.2 0 0 1 1-1l1.3-.4 1.3-.2a2.9 2.9 0 0 0 1-.3 1.3 1.3 0 0 0 .4-.9v-.2l-.5-1.1a10.9 10.9 0 0 0-.8-1.5 11.9 11.9 0 0 0-.9-1.5 4.5 4.5 0 0 0-.9-1l-.8-.5-1.1-.6-1.1-.6a1.9 1.9 0 0 1-.6-.7c-.2-.5-.3-1.1-.5-1.8a14.6 14.6 0 0 0-.7-1.9 5.4 5.4 0 0 0-1-1.6 2.4 2.4 0 0 0-1.8-.6 14.9 14.9 0 0 0-3.6.5 17.1 17.1 0 0 0-3.4 1.3 16.1 16.1 0 0 0-3 2.1 10.5 10.5 0 0 0-2.4 2.8h-.4v-.2a.6.6 0 0 1-.1-.4v-.6h-.2l-.6.3a1.8 1.8 0 0 0-.5.7 3.5 3.5 0 0 0-.5.8l-.6.6a6.9 6.9 0 0 1-.4-1v-1a8.8 8.8 0 0 1 .2-1.7l.6-1.7a9.8 9.8 0 0 0 .5-1.6 9.4 9.4 0 0 0 .3-1.6h-3a2.2 2.2 0 0 1 .4-1.5 4.3 4.3 0 0 1 1-.9 3.1 3.1 0 0 1 1.3-.6h3.1l1.8.3 1.7.2h2.7a1.4 1.4 0 0 0-1-.8l-1.5-.3h-1.6a3.1 3.1 0 0 1-1.4-.1l-2.3-1.3h-.2a12.1 12.1 0 0 0-1.9-.1 5.9 5.9 0 0 1-1.9.1 3.9 3.9 0 0 1-1.8-.4l-1.6-.8-1.6-.8a2.5 2.5 0 0 0-1.7-.4v3.6h1l.6-.2.5-.4.5-.3h.4v1.6l1.2-.4c0 .1.1.2.1.3v.3a3.2 3.2 0 0 1-.8 2.4 10.5 10.5 0 0 1-1.9 1.7 16.4 16.4 0 0 0-2.8-.7l-2.9-.4v-4.7l-1 .3a3.1 3.1 0 0 0-1.3.6 3 3 0 0 0-1.1.7c-.3.2-.6.5-.6.7v4.2a6.2 6.2 0 0 0 1.8-.2l1.1-.4.7-.3.8-.2h.2l.2.5a1.9 1.9 0 0 0 .2.7l.3.8a3.5 3.5 0 0 0 .1.6 2.3 2.3 0 0 1-.3 1.1 2.4 2.4 0 0 1-.6 1.1 2.5 2.5 0 0 1-1 .8 1.4 1.4 0 0 1-1 .4h-.7l-1.8-.3-2.2-.4a5.4 5.4 0 0 1-1.9-.8 1.5 1.5 0 0 1-.9-1.2V142l.5-.5 1.2-.9 1.4-1.4a10 10 0 0 0 1.4-1.5 7.6 7.6 0 0 0 1.1-1.6 3 3 0 0 0 .5-1.5 2.6 2.6 0 0 0-.7-1.7 6.6 6.6 0 0 0-1.7-1.2 8.8 8.8 0 0 0-2-.9l-1.5-.5-.8-5.5a13.6 13.6 0 0 0-.4-1.7 5.2 5.2 0 0 0-.6-1.6 4.7 4.7 0 0 0-1.1-1.3 2.2 2.2 0 0 0-1.6-.5 6.9 6.9 0 0 0-2.2.3 4.1 4.1 0 0 0-1.9.9l-1 .6-1.6.9-1.7 1-1.7 1-1.6 1c-.4.2-.8.7-1 .7h-.6l-1-.2-1.3-.2c-.4-.1-.5-.3-.8-.5s-.2-.5-.2-.8v-1.1c0-.4-.1-.6 0-.6h1s-.1-.1 0-.3a.6.6 0 0 1 .1-.4 1.3 1.3 0 0 1 .1-.6v-.3l-.5-.5-.5-.3a.8.8 0 0 1-.4-.4c-.2-.1-.2-.4-.2-.7a1.7 1.7 0 0 1 .1-.7 4.3 4.3 0 0 1 .4-.7l.4-.6.5-.2v.5c0 .3.3.6.3.9s.4.4.8.4a.7.7 0 0 0 .6-.2l.6-.7a4.2 4.2 0 0 0 .4-1c.1-.3.1.2.1-.8H63c-.2 0-.3-.2-.5-.3l-.7-.4-.5-.5a.9.9 0 0 1-.3-.6 2.6 2.6 0 0 1 .7-2 4 4 0 0 1 1.5-1 7.6 7.6 0 0 1 2-.6l1.7-.5 1.3-.6 2-.9 2.1-1a4.5 4.5 0 0 1 1.3-.6h8.2a3.6 3.6 0 0 1 2.3.6 9 9 0 0 1 1.9 1.5 14.9 14.9 0 0 1 1.5 2 24.3 24.3 0 0 1 1.4 2 10.3 10.3 0 0 0 1.4 1.5 2 2 0 0 0 1.5.6c.2 0 .4-.1.4-.2a.6.6 0 0 1 .6-.3l.9.2.9.4.9.5 1 .2 2.4-.2 2.5-.2 2.5-.3 2.5-.2a32.5 32.5 0 0 1 4.4.3 23.6 23.6 0 0 1 4.3.9l3.1 1.2 3 1.3a20.2 20.2 0 0 0 3.2 1.1 11.9 11.9 0 0 0 3.3.4h1.5l7.8-1.6 7.7-1.4q3.9-.6 7.8-.9c2.6-.2 5.3-.3 7.9-.3h5.4a22.7 22.7 0 0 1 3 .6l22 4.4h7c-.5 0-1.1.6-1.9.8a9.7 9.7 0 0 1-2.4 0z"/></symbol><symbol id="brachiosaurus" viewBox="0 0 252 256"><path d="M96.4 147.8a17.1 17.1 0 0 0-4.6.5.7.7 0 0 0 .4.6l1.2.6 1.6.6 1.7.5 1.5.4h2.1a7.6 7.6 0 0 0 1.6-.3l1.4-.5a2.2 2.2 0 0 0 1-.9 17.1 17.1 0 0 0-3.8-1.3 19 19 0 0 0-4.1-.2z"/><path d="M138 47.6a76.7 76.7 0 1 0 76.7 76.6A76.7 76.7 0 0 0 138 47.6zm50 42.3a3.4 3.4 0 0 1-.1.9 6.9 6.9 0 0 1-.2 1.3 5 5 0 0 1-.2 1.2 5.4 5.4 0 0 1-.1.8l-.6 1.1-.3 1.2a5.6 5.6 0 0 0-.4 1.2c-.1.4-.3.8-.4 1.2l-1 1.8a11.4 11.4 0 0 0-1 1.9l-12 16.7c-.1.2-.1.3-.2.3s-.1.1-.1.2l-.2.2q-.1 0-.3.3l-1 1.3-1.2 1.8a12.7 12.7 0 0 0-1.3 1.9 10.6 10.6 0 0 0-1.2 2 7.6 7.6 0 0 0-.9 1.8 3.9 3.9 0 0 0-.3 1.4c0 .2-.1.3-.1.4s.1.3.1.4c-.1.1-.2.1-.2.3a.2.2 0 0 0 .2.2v6.3a3.5 3.5 0 0 0-.1.6l-.3.7a1.5 1.5 0 0 0-.3.7 2.1 2.1 0 0 0-.3.7v1a.1.1 0 0 1 0 .2 1.3 1.3 0 0 1-.3.5l-.4.5-.3.2v.3l.5.2.5.3v1.7a15.5 15.5 0 0 1-.4 2.1c-.1.7-.3 1.4-.4 2.1a15.5 15.5 0 0 0-.4 2.1 15 15 0 0 0-.2 2.2c0 1.2 0 2.5.1 3.8s.4 2.5.7 3.7a14 14 0 0 0 1.3 3.4 13.2 13.2 0 0 0 2 3.2c-.1.2-.4.3-.7.5l-1 .4-1.1.3h-1.1l-.6-.2h-.8l-.6-.2h-.8l-.4-.3a.8.8 0 0 1-.2-.5 18.5 18.5 0 0 0 .1-2.4c-.1-.9-.1-1.7-.2-2.6l-.3-2.6a9.9 9.9 0 0 1-.3-2.4c-.1-.1-.1-.2-.2-.4s-.1-.3-.1-.4a17.7 17.7 0 0 1 .1-2.2 19.3 19.3 0 0 0-.1-2.4 20 20 0 0 0-.4-2.4 9.3 9.3 0 0 0-.8-2 1.8 1.8 0 0 0-.9 1c-.2.5-.3 1.1-.5 1.7s-.1 1.1-.2 1.7-.6 1.1-.6 1.4v4.6c0 1.7-.1 3.4-.1 5s.2 3.3.4 4.9l.2.2.5.4.5.4c.1.2.2.3.2.4l-.5.5-1.1.5-1.2.5-.8.3h-.1l-2.9-1.6a.4.4 0 0 1-.1-.3v-.4a10.8 10.8 0 0 1 0-1.8 9.7 9.7 0 0 0 .1-1.8 17.9 17.9 0 0 0-.2-2.3 17 17 0 0 0-.4-2.2l-.3-2.3a16.4 16.4 0 0 1-.2-2.3c0-.8.1-1.4.1-2s.1-1.2.2-1.7l.3-1.7a10.6 10.6 0 0 0 .4-1.9.4.4 0 0 0 0-.5c0-.2-.1-.3-.1-.4h-1.1l-1.1.3-1.2.4-1.1.3h-11.6a2.7 2.7 0 0 0-1.5.5 16 16 0 0 1 0 3.1c0 1.1 0 2.1-.1 3.1s-.1 2.1-.1 3.1-.1 2.1-.1 3.1v3.1c0 .3.4.7.7 1l.8 1 .7 1.1a1.7 1.7 0 0 1 .4 1.1h-.1a4.8 4.8 0 0 1-2.4.3c0 .2 0 .4-.1.4h-3a2 2 0 0 1-1.1-.6c-.4-.2-.5-.6-.5-1.1a2.5 2.5 0 0 1 .1-.8 1.9 1.9 0 0 1 .2-.7 1.9 1.9 0 0 1 .2-.8v-.9a17.7 17.7 0 0 0-.1-2.3c-.1-.7-.3-1.4-.4-2.1s-.4-1.6-.5-2.3a15 15 0 0 1-.4-2.4h-.3c-.1 0-.2.4-.3.5l-.3.4v.3l-1 1.4-.9 1.4-.6 1.5a4.1 4.1 0 0 0-.3 1.6 4.4 4.4 0 0 0 .2 1l.5.9.4.7.2.3c0 .2-.1.3-.2.5l-.7.2-.8.2h-2.6c-.2-.1-.5-.1-.6-.3a1 1 0 0 1-.4-.5 1.9 1.9 0 0 1-.4-1l-.3-.9a4.4 4.4 0 0 1-.2-1 1.6 1.6 0 0 1 .3-.9l.6-1 .6-.9a9 9 0 0 0 .5-.9l1.5-3.6 1.5-3.5c0-.2.1-.3.2-.5l.4-.4c.1-.2.2-.3.2-.5a.7.7 0 0 0 .1-.5c0-.2 0-.3-.2-.3h-.6a.1.1 0 0 0-.1.1l-5.5 1.4a.8.8 0 0 1-.7.3l-1.1.3-1 .3a1 1 0 0 0-.4.7.8.8 0 0 0 .2.5l.4.4.5.3.4.4-.2.3-.8-.5-.8-.5-1-.4h-.9a8.3 8.3 0 0 0-2.2.3l-2.4.6-2.5.7a10.9 10.9 0 0 1-2.6.3 8.7 8.7 0 0 1-2-.2 21.1 21.1 0 0 1-3-.7l-3.3-1a20.9 20.9 0 0 1-3-1.4 9.6 9.6 0 0 1-2.2-1.6 2.6 2.6 0 0 1-.9-1.8 3 3 0 0 1 .7-2 4.8 4.8 0 0 1 1.7-1 7.4 7.4 0 0 1 2.1 0 12.3 12.3 0 0 1 2 .2h2.4c.1 0 .3-.3.8-.2H99l1.5.2h1.2l1.2.4 1.1.5 1.1.4a2.2 2.2 0 0 0 1.2.2 6 6 0 0 0 2.4-.6l2.5-1.5 2.3-1.9 2-1.7 1.1-.7 1.1-.7 1.1-.7.9-1.1a11.7 11.7 0 0 0 1.5-2.7c.5-.9 1.1-1.8 1.7-2.7a2.7 2.7 0 0 1 .8-.7l.9-.6 1-.6 1-.5 2.1-1.6 2.1-1.8 2-1.8 2.1-1.7a10.5 10.5 0 0 1 2.3-1.3l2.4-1.2 1.5-.7 1.5-.8 1.5-.7 1.6-.5 13.5-1.9a8.6 8.6 0 0 0 2.1-.7l2.1-1.3c.6-.6 1.3-1.1 1.9-1.8l1.7-1.9 1.6-2 1.5-1.7 4.6-5.4h.2l.3-.4.3-.3c.1-.1.2-.1.2-.2l1.2-1.9h.2l.2-.2h.4c0-.1.1-.1.2-.3l.2-.2.8-1 .8-1.2.8-1.2.6-1a5 5 0 0 0 .5-1.3 5.6 5.6 0 0 0 .4-1.2l.5-1.4c.2-.4.6-.9.6-1.3v-4.1a2.7 2.7 0 0 0-.7-1.8 5.7 5.7 0 0 0-1.5-1.6 10.6 10.6 0 0 0-2.1-1.1 4.6 4.6 0 0 0-1.9-.4 13.4 13.4 0 0 0-3.5.4 7.7 7.7 0 0 0-3.1 1.6l-.9.8-.9 1.2-1.1 1.2-1.2 1.1-1.1.8a2.3 2.3 0 0 1-1.1.3 1 1 0 0 1-1-1v-.2a.4.4 0 0 1 .1-.3 9329101592432.2 9329101592432.2 0 0 1 .2-1v-.2a2.5 2.5 0 0 0-.2-1l-.3-.9a2.5 2.5 0 0 1-.4-.7 1.7 1.7 0 0 1-.1-.7l.5-.2.3-.4a.8.8 0 0 1 .2-.4 1 1 0 0 1 .5-.4h1.7a.6.6 0 0 0 .6-.3l.4-.4h.2c.1 0 .1.1.2.2v.2a.2.2 0 0 1 .2-.2l.4-.2.7-.4.8-.5.8-.5.7-.4.3-.2 1.3-.8a3.5 3.5 0 0 1 1.1-.3l1.1-.2h3.9l.9.3.9.2 1 .2a1.6 1.6 0 0 1 .9.3 7.1 7.1 0 0 1 2.7 1.8 9.6 9.6 0 0 1 2 2.5 11.2 11.2 0 0 1 1 3.1 11.6 11.6 0 0 1 .3 3.3v1.4z"/></symbol></svg>