<svg xmlns="http://www.w3.org/2000/svg" width="252" height="256" viewBox="0 0 252 256"><path d="M131.6 147.7a.3.3 0 0 0-.3.3.3.3 0 0 0-.3.3c0 .3.1.4.3.4s.2-.1.2-.4h.1a.3.3 0 1 0 0-.6zm.9-.5a1 1 0 0 0-.6.5h.2l.7-.2.5-.5h-.2zm1.8-1.6c-.2 0-.3.2-.3.4a.3.3 0 0 0-.3.3h-.1c-.2 0-.3.1-.3.4a.3.3 0 1 0 .6 0h.1c.2 0 .2-.1.2-.4h.1a.3.3 0 0 0 .3-.3c0-.2-.1-.4-.3-.4zm14-3.5l-.8.8c.2.4.3.6.5.7h.7a1.1 1.1 0 0 0 .8-.3 2.3 2.3 0 0 0 .7-.7l.5-.9c.1-.3.2-.7.3-.7h-2.1c-.1.1-.3.7-.6 1.1z"/><path d="M128.8 57.1a76.7 76.7 0 1 0 76.7 76.6 76.6 76.6 0 0 0-76.7-76.6zm57.5 45.4l-.9.3h-2.2a19.4 19.4 0 0 0-3.2.7 9 9 0 0 0-2.2 1 4.7 4.7 0 0 0-1.5 1.3 14.2 14.2 0 0 0-1.1 1.8 18.5 18.5 0 0 0-.9 2.3c-.2.9-.6 1.9-1 3.1a11.8 11.8 0 0 1-.7 2c-.2.7-.5 1.3-.7 1.9l-.9 1.9a19.8 19.8 0 0 1-1.1 2 14.3 14.3 0 0 1-1.6 2.4 18.1 18.1 0 0 1-1.8 2.3l-1.8 2.1a21.1 21.1 0 0 0-1.9 2.3 6 6 0 0 0-.8 1.6l-.6 1.6-.8 1.3a5.6 5.6 0 0 1-1.5 1l-.8.3-1.3.4-1.2.4-.8.2a1.7 1.7 0 0 1 .1 1.2 1 1 0 0 1-.5.6l-.8.4a1.2 1.2 0 0 0-.5.5l-1.3 4.1a2.2 2.2 0 0 1-.7.9 2.8 2.8 0 0 1-1.1.5h-3.5a.6.6 0 0 1-.2-.5v-.2c.1-.1.1-.2.2-.2v-.4l-2.1 1-2 1.2-2 1.3-2.1 1.2-.5.3-.7.4-.6.4a.8.8 0 0 0-.2.7v.2l1.1 1 1.1 1 1.3 1 1.2.7 1.1.4 1.2.4 1.1.4 1 .5.9.9.6.9.7.8a2.4 2.4 0 0 0 .9.8 2.3 2.3 0 0 0 1 .4l1.3.4a2.1 2.1 0 0 1 1 .6 1.2 1.2 0 0 1 .5 1v.2h-.1l-3.4.7-.6.2-.7.2h-.4l-.7-.4-1-.6-1-.6-.6-.5c0-.1-.1-.2-.2-.3l-.2-.3c0-.2-.1-.2-.1-.3l-1.4-2.7-.7-.3-1.1-.5-1.3-.5-1.2-.6-1.1-.5-.7-.4-1.7-.9-1.6-1.3-1.2-1.6a6 6 0 0 1-.6-1.9h-.3l-.4.2-.5.4-1 .7-1.3.9-1.3.8-1.1.7c-.3.1-.5.2-.5.3l-3.6 2.1a12.1 12.1 0 0 0-2.8 2.1 11.2 11.2 0 0 0-2.2 2.6c-.5 1.1-.4 2.4-1.4 4v1a6.7 6.7 0 0 0 .7 2.7 4.7 4.7 0 0 0 1.3 1.5 4.2 4.2 0 0 0 1.6.9 6.7 6.7 0 0 1 1.5.6c.5.2.9.2 1.2.5a4.5 4.5 0 0 1 .5 1.3h-8.1a.5.5 0 0 0-.1-.3c0-.1-.1-.1-.2-.1h-.3l-.4-.2a1.6 1.6 0 0 1-.7-.9 2.8 2.8 0 0 1-.3-1.3c0-.5.1-1 .1-1.4a6.9 6.9 0 0 0 .2-1.3v-.8a2.6 2.6 0 0 1 .2-1.1l.3-1.6c.2-.6.3-1.3.5-1.9s.3-1.3.5-1.9a6.2 6.2 0 0 1 .4-1.6 8.9 8.9 0 0 0 .2-1.1 8.3 8.3 0 0 1 .4-1.2l.6-1.2a8.7 8.7 0 0 0 2.7-1.5 12.6 12.6 0 0 0 2-2l1.7-2.1a9.1 9.1 0 0 1 2.1-1.8l.9-.5 1.2-.4 1.4-.6 1.3-.7a3.9 3.9 0 0 0 1-.8 1.6 1.6 0 0 0 .3-.9v-.7a1 1 0 0 0-.4-.8h-.4l-.7-.4-.7-.3-.5-.2-1.2-.7-1.6-1.2-1.6-.9a1.6 1.6 0 0 0-1-.3H95l-7.8-.2a59.8 59.8 0 0 1-7.4-.8 45.8 45.8 0 0 1-7.3-1.8 38.6 38.6 0 0 1-7.1-3l-.8-.5a2.1 2.1 0 0 1-1-.6l-.8-.7a1.9 1.9 0 0 1-.3-1l1.3.2 1.4.6 1.3.6 1 .4 2.8 1 3 .8a17 17 0 0 0 3.1.6l2.9.3h16l1.6-.2 2-.3 2.2-.4 2.1-.4 1.6-.3 4.1-.8 4.5-1 4.4-1.3a23 23 0 0 0 3.9-1.7l2.4-1 2.2-1 2.4-.8 2.6-.6h3.4l1.1-.2 2-.4 2.5-.6 2.4-.5c.8-.2 1.4-.6 2-.7a5.3 5.3 0 0 0 1.1-.4h4a38.8 38.8 0 0 1 4.8.4c1.5.1 3.1.3 4.7.3a5.2 5.2 0 0 0 3-.8 10.8 10.8 0 0 0 2.8-2.1 18.2 18.2 0 0 0 2.3-3 37.9 37.9 0 0 0 2-3.4 31.1 31.1 0 0 0 1.5-3.3c.5-1.1.8-2.1 1.1-2.9s.5-1.5.7-2.1l.6-1.9a7.7 7.7 0 0 1 .7-1.6 3.2 3.2 0 0 1 1.1-1.2 4.9 4.9 0 0 1 1.6-1 6.7 6.7 0 0 1 2.2-.4h1.9c.4 1 1 .5 1.8.7l2.1 1a7.8 7.8 0 0 1 1.8 1.1 1.7 1.7 0 0 1 .8 1.3 1.1 1.1 0 0 1-.3.8 1.8 1.8 0 0 1-.7.1z"/></svg>