<svg xmlns="http://www.w3.org/2000/svg" width="252" height="256" viewBox="0 0 252 256"><path d="M127.2 52.1a76.7 76.7 0 1 0 76.6 76.6 76.6 76.6 0 0 0-76.6-76.6zm66.3 69.9H189a50.7 50.7 0 0 1-5.5-.3l-5.5-.6-5.5-.5a49.3 49.3 0 0 0-5.5-.3 81.8 81.8 0 0 0-9.8.6 44.6 44.6 0 0 0-9.6 2.2l-18.4 6.7c-.3.1-.5.4-.7.9a9.8 9.8 0 0 0-.5 1.6 11.6 11.6 0 0 1-.4 1.8 5.3 5.3 0 0 1-.3 1.1 1.5 1.5 0 0 0 .8.8 5.2 5.2 0 0 0 1.5.7l1.7.8 1.7.8a4.6 4.6 0 0 1 1.2 1.2 1.9 1.9 0 0 1 .5 1.4 1.1 1.1 0 0 1-.3.8l-.7.5-1 .4-.9.5-.8.6a1.7 1.7 0 0 0-.3 1 2.5 2.5 0 0 0 .5 1.5 3.8 3.8 0 0 0 1.2.9l1.4.8a4.5 4.5 0 0 1 1.3 1.1 7.2 7.2 0 0 1 1.2 2.1 14.3 14.3 0 0 1 .8 2.2 15.7 15.7 0 0 1 .4 2.3 19.4 19.4 0 0 1 .2 2.4l.8.8v4.3h1.7l.4.2v.5a1.8 1.8 0 0 1-.1.6 1.9 1.9 0 0 1-.2.7 1.3 1.3 0 0 1-.4.6c-.1.2-.3.2-.5.2h-3.1c-.1 0-.3-.4-.6-.5l-.9-.6-1-.4-.6-.5h-3.8a3.4 3.4 0 0 1 .4-1.8 3.2 3.2 0 0 1 1-1l1.3-.4 1.3-.2a2.9 2.9 0 0 0 1-.3 1.3 1.3 0 0 0 .4-.9v-.2l-.5-1.1a10.9 10.9 0 0 0-.8-1.5 11.9 11.9 0 0 0-.9-1.5 4.5 4.5 0 0 0-.9-1l-.8-.5-1.1-.6-1.1-.6a1.9 1.9 0 0 1-.6-.7c-.2-.5-.3-1.1-.5-1.8a14.6 14.6 0 0 0-.7-1.9 5.4 5.4 0 0 0-1-1.6 2.4 2.4 0 0 0-1.8-.6 14.9 14.9 0 0 0-3.6.5 17.1 17.1 0 0 0-3.4 1.3 16.1 16.1 0 0 0-3 2.1 10.5 10.5 0 0 0-2.4 2.8h-.4v-.2a.6.6 0 0 1-.1-.4v-.6h-.2l-.6.3a1.8 1.8 0 0 0-.5.7 3.5 3.5 0 0 0-.5.8l-.6.6a6.9 6.9 0 0 1-.4-1v-1a8.8 8.8 0 0 1 .2-1.7l.6-1.7a9.8 9.8 0 0 0 .5-1.6 9.4 9.4 0 0 0 .3-1.6h-3a2.2 2.2 0 0 1 .4-1.5 4.3 4.3 0 0 1 1-.9 3.1 3.1 0 0 1 1.3-.6h3.1l1.8.3 1.7.2h2.7a1.4 1.4 0 0 0-1-.8l-1.5-.3h-1.6a3.1 3.1 0 0 1-1.4-.1l-2.3-1.3h-.2a12.1 12.1 0 0 0-1.9-.1 5.9 5.9 0 0 1-1.9.1 3.9 3.9 0 0 1-1.8-.4l-1.6-.8-1.6-.8a2.5 2.5 0 0 0-1.7-.4v3.6h1l.6-.2.5-.4.5-.3h.4v1.6l1.2-.4c0 .1.1.2.1.3v.3a3.2 3.2 0 0 1-.8 2.4 10.5 10.5 0 0 1-1.9 1.7 16.4 16.4 0 0 0-2.8-.7l-2.9-.4v-4.7l-1 .3a3.1 3.1 0 0 0-1.3.6 3 3 0 0 0-1.1.7c-.3.2-.6.5-.6.7v4.2a6.2 6.2 0 0 0 1.8-.2l1.1-.4.7-.3.8-.2h.2l.2.5a1.9 1.9 0 0 0 .2.7l.3.8a3.5 3.5 0 0 0 .1.6 2.3 2.3 0 0 1-.3 1.1 2.4 2.4 0 0 1-.6 1.1 2.5 2.5 0 0 1-1 .8 1.4 1.4 0 0 1-1 .4h-.7l-1.8-.3-2.2-.4a5.4 5.4 0 0 1-1.9-.8 1.5 1.5 0 0 1-.9-1.2V142l.5-.5 1.2-.9 1.4-1.4a10 10 0 0 0 1.4-1.5 7.6 7.6 0 0 0 1.1-1.6 3 3 0 0 0 .5-1.5 2.6 2.6 0 0 0-.7-1.7 6.6 6.6 0 0 0-1.7-1.2 8.8 8.8 0 0 0-2-.9l-1.5-.5-.8-5.5a13.6 13.6 0 0 0-.4-1.7 5.2 5.2 0 0 0-.6-1.6 4.7 4.7 0 0 0-1.1-1.3 2.2 2.2 0 0 0-1.6-.5 6.9 6.9 0 0 0-2.2.3 4.1 4.1 0 0 0-1.9.9l-1 .6-1.6.9-1.7 1-1.7 1-1.6 1c-.4.2-.8.7-1 .7h-.6l-1-.2-1.3-.2c-.4-.1-.5-.3-.8-.5s-.2-.5-.2-.8v-1.1c0-.4-.1-.6 0-.6h1s-.1-.1 0-.3a.6.6 0 0 1 .1-.4 1.3 1.3 0 0 1 .1-.6v-.3l-.5-.5-.5-.3a.8.8 0 0 1-.4-.4c-.2-.1-.2-.4-.2-.7a1.7 1.7 0 0 1 .1-.7 4.3 4.3 0 0 1 .4-.7l.4-.6.5-.2v.5c0 .3.3.6.3.9s.4.4.8.4a.7.7 0 0 0 .6-.2l.6-.7a4.2 4.2 0 0 0 .4-1c.1-.3.1.2.1-.8H63c-.2 0-.3-.2-.5-.3l-.7-.4-.5-.5a.9.9 0 0 1-.3-.6 2.6 2.6 0 0 1 .7-2 4 4 0 0 1 1.5-1 7.6 7.6 0 0 1 2-.6l1.7-.5 1.3-.6 2-.9 2.1-1a4.5 4.5 0 0 1 1.3-.6h8.2a3.6 3.6 0 0 1 2.3.6 9 9 0 0 1 1.9 1.5 14.9 14.9 0 0 1 1.5 2 24.3 24.3 0 0 1 1.4 2 10.3 10.3 0 0 0 1.4 1.5 2 2 0 0 0 1.5.6c.2 0 .4-.1.4-.2a.6.6 0 0 1 .6-.3l.9.2.9.4.9.5 1 .2 2.4-.2 2.5-.2 2.5-.3 2.5-.2a32.5 32.5 0 0 1 4.4.3 23.6 23.6 0 0 1 4.3.9l3.1 1.2 3 1.3a20.2 20.2 0 0 0 3.2 1.1 11.9 11.9 0 0 0 3.3.4h1.5l7.8-1.6 7.7-1.4q3.9-.6 7.8-.9c2.6-.2 5.3-.3 7.9-.3h5.4a22.7 22.7 0 0 1 3 .6l22 4.4h7c-.5 0-1.1.6-1.9.8a9.7 9.7 0 0 1-2.4 0z"/></svg>